<?xml version="1.0" encoding="UTF-8" standalone="no"?>
<!-- Created with Inkscape (http://www.inkscape.org/) -->

<svg
   width="99.770454mm"
   height="50.501602mm"
   viewBox="0 0 99.770454 50.501602"
   version="1.1"
   id="svg1"
   xml:space="preserve"
   inkscape:export-filename="..\..\Downloads\fondoTlalchichi.png"
   inkscape:export-xdpi="96"
   inkscape:export-ydpi="96"
   inkscape:version="1.4.4 (dcaf3e7, 2026-05-05)"
   sodipodi:docname="masterpublicidad0626.svg"
   xmlns:inkscape="http://www.inkscape.org/namespaces/inkscape"
   xmlns:sodipodi="http://sodipodi.sourceforge.net/DTD/sodipodi-0.dtd"
   xmlns="http://www.w3.org/2000/svg"
   xmlns:svg="http://www.w3.org/2000/svg"><sodipodi:namedview
     id="namedview1"
     pagecolor="#ffffff"
     bordercolor="#000000"
     borderopacity="0.25"
     inkscape:showpageshadow="2"
     inkscape:pageopacity="0.0"
     inkscape:pagecheckerboard="0"
     inkscape:deskcolor="#d1d1d1"
     inkscape:document-units="mm"
     inkscape:zoom="0.030356213"
     inkscape:cx="-7988.4801"
     inkscape:cy="757.67028"
     inkscape:window-width="1366"
     inkscape:window-height="697"
     inkscape:window-x="-8"
     inkscape:window-y="-8"
     inkscape:window-maximized="1"
     inkscape:current-layer="layer10"><inkscape:page
       x="0"
       y="0"
       width="99.770454"
       height="50.501602"
       id="page2"
       margin="0"
       bleed="0" /></sodipodi:namedview><defs
     id="defs1" /><g
     inkscape:groupmode="layer"
     id="layer2"
     inkscape:label="Capa 7"
     transform="translate(-198.80766,-386.1643)"><path
       style="display:inline;fill:#134592;fill-opacity:1"
       d="m -1125.0228,-29.976804 c -2.6474,-0.748354 -5.6325,-2.91678 -7.6078,-5.526518 -1.4445,-1.908486 -1.1733,-1.994335 0.7674,-0.242856 2.0715,1.869677 4.9406,3.526015 7.7334,4.464538 1.7041,0.572667 2.3813,0.666687 4.0925,0.568187 1.1278,-0.06492 2.0505,-0.08125 2.0505,-0.03629 0,0.04496 -0.3587,0.267237 -0.7971,0.493954 -1.145,0.592085 -4.5867,0.745991 -6.2389,0.278983 z m -81.8639,-20.951498 c 0,-0.05446 1.0097,-0.09902 2.2439,-0.09902 2.1127,0 2.2514,0.0348 2.3718,0.595313 0.07,0.327422 -4.6157,-0.359426 -4.6157,-0.496293 z m 82.4177,14.879674 c -0.7277,-0.177173 -1.8846,-0.602939 -2.5711,-0.946147 -1.2863,-0.643052 -3.2259,-2.106049 -3.0395,-2.292522 0.058,-0.05789 0.8784,0.185745 1.8233,0.541409 2.0819,0.783617 5.5938,1.476895 7.4815,1.476895 1.6038,0 2.8146,-0.672457 3.7739,-2.095945 l 0.6016,-0.892727 v 0.774006 c 0,1.465777 -1.3025,2.824731 -3.2666,3.407986 -1.561,0.463564 -2.9777,0.471541 -4.8031,0.02705 z m -14.0401,-4.416238 c -5.3328,-4.530554 -13.9513,-9.622279 -19.1685,-11.324522 -5.6412,-1.840566 -11.2937,-1.779636 -19.2586,0.207592 -2.8543,0.712154 -8.4741,1.566052 -11.2874,1.715054 -3.1753,0.168173 -7.744,-0.231212 -10.2842,-0.899002 -4.644,-1.220888 -9.0157,-4.043513 -12.0364,-7.771376 -1.3775,-1.699899 -3.3527,-4.882783 -3.1537,-5.081803 0.064,-0.06411 0.685,0.491156 1.3798,1.233918 4.389,4.692294 10.4196,7.919861 16.5439,8.854355 2.7432,0.418582 5.2916,0.5058 5.2916,0.1811 0,-0.113057 -0.4681,-0.828568 -1.0402,-1.590024 -1.1419,-1.519742 -2.1348,-3.87984 -2.1348,-5.074612 0,-0.978595 0.6218,-1.596473 1.6064,-1.596473 0.9233,0 0.936,-0.09762 0.2232,-1.709179 -0.4663,-1.053951 -0.5031,-1.364836 -0.2376,-2.005715 0.3514,-0.848473 1.2726,-1.220546 4.8903,-1.975173 1.1642,-0.242839 3.605,-0.857554 5.424,-1.366034 1.819,-0.50848 4.2598,-1.093241 5.4239,-1.299468 2.5704,-0.455325 8.4068,-0.461858 11.5727,-0.01295 2.2423,0.317954 2.3531,0.308412 3.6662,-0.315641 3.2238,-1.532207 9.6241,-2.366401 12.6278,-1.645844 2.3119,0.554621 3.4592,1.963667 2.1635,2.65709 -0.291,0.155761 -0.5291,0.382005 -0.5291,0.502766 0,0.12076 0.9302,0.760029 2.067,1.420598 1.9265,1.11938 3.7538,2.770191 3.7538,3.391273 0,0.148027 -0.3572,0.393656 -0.7937,0.545843 -1.3979,0.487301 -0.9733,1.440014 1.8109,4.063262 0.9233,0.869887 1.8138,1.820642 1.9791,2.112789 0.1652,0.292148 0.3718,1.835987 0.4591,3.430755 l 0.1588,2.899577 1.9632,1.8193 c 3.3105,3.06782 8.1784,5.05259 13.2363,5.396849 2.0906,0.142293 2.405,0.09652 3.8357,-0.558462 2.479,-1.1349 3.5443,-2.41511 3.5443,-4.259013 0,-1.708972 -0.9076,-2.773748 -2.9104,-3.41446 -1.07,-0.342298 -1.1102,-0.382604 -0.3968,-0.397839 2.4714,-0.05279 4.1485,1.502791 4.1772,3.874719 0.028,2.331333 -1.3363,4.02515 -4.4571,5.532562 -3.8623,1.865603 -8.4291,1.376569 -14.218,-1.522546 -3.3727,-1.68904 -5.391,-3.426004 -9.0632,-7.799866 -5.5617,-6.624425 -12.3867,-11.873898 -17.8563,-13.734232 -2.44,-0.829909 -7.4522,-1.883655 -10.0441,-2.111628 -3.4981,-0.307681 -9.9459,0.594081 -15.2382,2.13113 -1.2961,0.376437 -3.1602,0.752442 -4.1425,0.835568 -2.0372,0.172397 -2.0682,0.227807 -1.3019,2.323347 0.701,1.916932 0.5485,2.248958 -1.0326,2.248958 h -1.3035 v 1.536919 c 0,1.558583 0.03,1.630129 2.1314,5.03559 0.3538,0.573569 0.5023,0.607493 2.0067,0.458633 0.8935,-0.08841 3.0961,-0.561067 4.8948,-1.050341 7.8375,-2.132006 11.2504,-2.791523 15.4495,-2.985513 3.9814,-0.183932 5.9999,0.09023 9.5165,1.29259 7.1203,2.434468 10.7616,4.927952 17.7371,12.146181 2.7407,2.83606 4.2543,4.657532 4.0446,4.867246 -0.066,0.06613 -0.8269,-0.480101 -1.6905,-1.213845 z m 0.046,-13.669831 c -0.3545,-2.087267 -0.193,-1.883015 -3.84,-4.855255 -2.3244,-1.894305 -2.8279,-2.92479 -2.3331,-4.774673 0.1731,-0.647001 0.05,-0.780276 -1.6656,-1.799351 -2.1466,-1.27524 -2.7664,-2.070686 -2.7103,-3.478097 0.04,-1.002204 0.034,-1.008225 -1.202,-1.213406 -3.0828,-0.511745 -11.1641,-0.03165 -11.1641,0.663237 0,0.100641 0.7912,0.409581 1.7583,0.686534 6.1652,1.765646 12.7441,6.737183 19.8684,15.014206 0.836,0.971317 1.5411,1.744938 1.5669,1.719157 0.026,-0.02578 -0.1,-0.908839 -0.2785,-1.962352 z m -45.4179,-8.558939 c -0.163,-0.304596 -0.2249,-0.838564 -0.1375,-1.186595 0.3011,-1.1997 2.2752,-1.072843 2.6702,0.171585 0.4069,1.282107 -1.8958,2.204971 -2.5327,1.01501 z"
       id="path228"
       transform="translate(1412.5195,458.36724)"
       sodipodi:nodetypes="sscsssssssscssssssscssssssssssscsssssccsssssssssssssscsssssscssssssssscscsssssssscsscsssssccscss" /><path
       style="display:inline;fill:#4a62a5;fill-opacity:1"
       d="m -1189.9185,-21.943694 c -1.7592,-0.345726 -3.3189,-1.206655 -4.4925,-2.479868 -2.1775,-2.362333 -3.0561,-5.053635 -3.0705,-9.405848 -0.011,-3.306414 0.3309,-5.126664 1.3892,-7.397155 2.0046,-4.300538 6.8439,-6.661456 11.3359,-5.530355 1.3432,0.33823 1.294,0.04955 0.6057,3.55093 l -0.2632,1.339045 -1.9099,-0.01613 c -1.5749,-0.0133 -2.0566,0.08859 -2.747,0.58103 -1.689,1.204765 -2.6367,4.468066 -2.381,8.198896 0.1786,2.605534 0.7853,4.116823 2.1249,5.293008 0.9913,0.870311 1.4246,0.973795 3.6495,0.871451 l 1.2333,-0.05673 0.1693,1.808525 c 0.093,0.994689 0.222,2.064327 0.2864,2.376974 0.1054,0.512068 -0.049,0.597354 -1.5566,0.859896 -1.8944,0.329892 -2.721,0.331088 -4.3735,0.0063 z m 10.9688,-1.587266 c -1.3337,-1.585099 -0.7006,-4.69861 1.0746,-5.284489 1.9842,-0.654841 3.4469,0.963859 3.1993,3.540522 -0.1619,1.684641 -1.0389,2.558017 -2.5688,2.558017 -0.8143,0 -1.1583,-0.164251 -1.7051,-0.81405 z m 2.3368,-1.680727 c 0.2103,-1.121172 -0.049,-2.267723 -0.5136,-2.267723 -0.4744,0 -0.7474,1.841981 -0.4061,2.739771 0.3447,0.906471 0.6948,0.726763 0.9197,-0.472048 z m 3.5928,-1.841901 v -4.336678 l 0.9342,-0.109054 c 0.5137,-0.05998 0.9926,-0.05056 1.0641,0.02094 0.072,0.0715 0.1185,2.072079 0.1044,4.445733 l -0.026,4.315734 h -1.0385 -1.0385 z m 3.8966,4.138241 c -0.057,-0.109141 -0.094,-1.448594 -0.082,-2.976563 l 0.022,-2.778125 0.9922,-0.08212 0.9922,-0.08212 v 3.05868 3.05868 h -0.9105 c -0.5007,0 -0.9569,-0.0893 -1.0138,-0.198437 z m 3.7763,-2.844271 v -3.042709 h 0.7938 c 0.4366,0 0.7937,0.117137 0.7937,0.260303 0,0.143167 0.4094,0.0651 0.9097,-0.173472 0.8242,-0.393044 0.9683,-0.395322 1.5346,-0.02426 0.5354,0.350793 0.718,0.358043 1.2732,0.05056 0.9117,-0.504919 1.416,-0.461859 1.9876,0.169712 0.3953,0.436796 0.5167,1.078415 0.601,3.175 l 0.1055,2.627579 h -1.0891 -1.0891 v -2.248958 c 0,-1.745917 -0.082,-2.248959 -0.3686,-2.248959 -0.5337,0 -0.6898,0.603326 -0.6898,2.667473 v 1.830444 h -0.926 -0.926 v -2.233343 c 0,-2.057122 -0.258,-2.888328 -0.7452,-2.401461 -0.1,0.09938 -0.2229,1.182861 -0.2742,2.407744 l -0.093,2.22706 h -0.8989 -0.8989 z m 9.9188,2.510127 c -1.0666,-1.178655 -0.2896,-3.282812 1.324,-3.585542 1.2456,-0.233673 1.1806,-0.644377 -0.1019,-0.644377 -0.9977,0 -1.5649,-0.498632 -1.2137,-1.066923 0.2604,-0.421205 2.4163,-0.588358 3.0733,-0.23828 1.1045,0.588488 1.2698,1.05647 1.2786,3.620307 l 0.01,2.447396 h -0.7937 c -0.4366,0 -0.7938,-0.123252 -0.7938,-0.273892 0,-0.188801 -0.1589,-0.188801 -0.5117,0 -0.803,0.429756 -1.7434,0.322561 -2.2695,-0.258689 z m 2.0982,-0.950935 c 0.6161,-0.236455 0.5474,-1.426901 -0.082,-1.426901 -0.5611,0 -0.8841,0.588747 -0.6531,1.190625 0.1737,0.452733 0.1724,0.452329 0.7355,0.236276 z m -15.3904,-5.570879 c -0.4934,-0.199097 -0.4131,-1.661857 0.1021,-1.859558 1.014,-0.38912 1.8688,1.0517 1.0006,1.686569 -0.5061,0.370061 -0.584,0.382283 -1.1027,0.172989 z m -41.3411,-5.618196 c 0,-0.130447 0.3011,-1.648493 0.6691,-3.373438 0.8143,-3.816294 2.5059,-12.028496 2.5059,-12.165363 0,-0.05446 1.0097,-0.09902 2.2439,-0.09902 2.1127,0 2.2514,0.0348 2.3718,0.595313 0.07,0.327422 0.4969,2.619375 0.9479,5.093229 0.451,2.473854 1.0506,5.724351 1.3324,7.223327 0.2818,1.498976 0.5123,2.784338 0.5123,2.85636 0,0.07202 -0.8037,0.09574 -1.7859,0.05271 l -1.786,-0.07823 -0.2284,-1.521355 -0.2285,-1.521354 h -1.2809 c -1.2754,0 -1.2816,0.0043 -1.4404,0.992188 -0.3752,2.333312 -0.2291,2.182812 -2.1185,2.182812 -0.9431,0 -1.7147,-0.106728 -1.7147,-0.237174 z m 6.1061,-5.826486 c 0.1441,-0.02049 0.022,-1.111435 -0.5058,-4.519673 -0.1239,-0.800365 -0.2898,-1.276615 -0.3686,-1.058333 -0.2478,0.686346 -0.9068,5.559608 -0.7703,5.696155 0.072,0.07163 0.4366,0.07924 0.811,0.01692 0.3744,-0.06232 0.7495,-0.1231 0.8337,-0.135067 z m 23.6081,3.309085 c -0.7391,-0.63507 -0.7427,-0.654497 -0.8285,-4.365625 l -0.086,-3.727716 h 1.3429 1.3429 v 2.756485 c 0,3.078754 0.1128,3.593515 0.7874,3.593515 0.5789,0 0.7931,-1.123566 0.7972,-4.181685 v -2.197309 l 1.2568,0.08064 1.2567,0.08064 0.074,3.957126 c 0.04,2.17642 0.024,4.08585 -0.036,4.243178 -0.1712,0.446172 -2.2862,0.159574 -2.2862,-0.309798 0,-0.300824 -0.1571,-0.264765 -0.6972,0.160082 -0.9239,0.72676 -2.015,0.693372 -2.9261,-0.08954 z m 7.7736,-9.99e-4 c -1.854,-1.718314 -0.6641,-4.657625 2.0649,-5.100479 0.5107,-0.08288 0.9285,-0.300792 0.9285,-0.484257 0,-0.473632 -1.0878,-0.686015 -2.0703,-0.40422 -0.7898,0.226495 -0.8469,0.193986 -1.0572,-0.601244 -0.2057,-0.778019 -0.1616,-0.863836 0.5927,-1.151284 0.4483,-0.17083 1.424,-0.319659 2.1684,-0.330729 2.5814,-0.03839 3.2729,1.1723 3.2754,5.734558 v 2.711979 l -0.7276,0.03135 c -1.0552,0.04546 -1.4991,-0.04839 -1.691,-0.357548 -0.1092,-0.176024 -0.3892,-0.11952 -0.7864,0.158737 -0.876,0.613567 -1.898,0.535229 -2.6988,-0.206862 z m 3.258,-2.677693 c 0,-0.961072 -0.2273,-1.096904 -1.0757,-0.64284 -0.5814,0.311141 -0.715,1.725821 -0.1811,1.917265 0.6808,0.244116 1.2568,-0.339931 1.2568,-1.274425 z m 4.8286,3.101782 c -0.5888,-0.08563 -0.5953,-0.132499 -0.5953,-4.3015 v -4.214931 h 1.0275 c 0.8215,0 1.0566,0.111464 1.1729,0.55601 l 0.1454,0.556011 0.5968,-0.556011 c 0.3282,-0.305806 0.8125,-0.55601 1.0761,-0.55601 0.3971,0 0.4792,0.221144 0.4792,1.289843 0,1.208514 -0.048,1.29942 -0.7593,1.441717 -0.9345,0.186903 -1.0843,0.671386 -1.0891,3.522264 0,2.147256 -0.01,2.153034 -0.7312,2.250979 -0.4002,0.05401 -0.9955,0.05924 -1.323,0.01163 z m 5.9532,0.02034 -1.2568,-0.0991 v -4.218837 -4.218836 h 1.3229 1.3229 v 4.365625 c 0,2.401093 -0.03,4.344164 -0.066,4.317934 -0.036,-0.02623 -0.6317,-0.09228 -1.3229,-0.146789 z m 4.3784,-0.308486 c -1.1821,-0.74239 -1.6665,-1.825313 -1.6665,-3.725727 0,-2.789653 0.9471,-4.131448 3.1219,-4.423152 2.5612,-0.343527 4.2807,2.456676 3.502,5.702834 -0.596,2.484384 -3.0042,3.67265 -4.9574,2.446045 z m 2.1783,-1.94443 c 0.2517,-0.671129 0.3565,-2.208041 0.209,-3.063833 -0.1433,-0.831467 -0.7063,-1.363963 -1.064,-1.006286 -0.3333,0.333241 -0.5307,2.676189 -0.2968,3.522994 0.2404,0.87089 0.911,1.189405 1.1518,0.547125 z"
       id="path229"
       transform="translate(1412.5195,458.36724)"
       sodipodi:nodetypes="sssssscsssssccsssscssscssssccsccccccsccccccsssccssssssccccssscccscccccccssssccssscccssccssssscsscsssscccscsssssscssscccccssccccccsscccssssssccsssccsssssscsscssssccssccccccssscsssssssscs" /></g></svg>
